<mxfile host="app.diagrams.net" modified="2022-06-19T08:00:01.041Z" agent="5.0 (Windows NT 10.0; Win64; x64) AppleWebKit/537.36 (KHTML, like Gecko) Chrome/102.0.0.0 Safari/537.36" etag="v5cRe9CL6syarqC1r5TM" version="20.0.1" type="github">
  <diagram id="LDCVg0GVWxEjZQgjXOYM" name="Page-1">
    <mxGraphModel dx="574" dy="602" grid="1" gridSize="10" guides="1" tooltips="1" connect="1" arrows="1" fold="1" page="1" pageScale="1" pageWidth="850" pageHeight="1100" background="#004C99" math="0" shadow="0">
      <root>
        <mxCell id="0" />
        <mxCell id="1" parent="0" />
        <mxCell id="EhvA6dui2CepMF-uVZWQ-1" value="" style="rounded=0;whiteSpace=wrap;html=1;fillColor=#007FFF;strokeColor=#6c8ebf;" vertex="1" parent="1">
          <mxGeometry x="30" y="235" width="400" height="245" as="geometry" />
        </mxCell>
        <mxCell id="EhvA6dui2CepMF-uVZWQ-2" value="" style="endArrow=none;html=1;rounded=0;fontColor=#FFFFFF;strokeColor=#FFFFFF;" edge="1" parent="1">
          <mxGeometry width="50" height="50" relative="1" as="geometry">
            <mxPoint x="80" y="400" as="sourcePoint" />
            <mxPoint x="390" y="380" as="targetPoint" />
            <Array as="points">
              <mxPoint x="160" y="400" />
              <mxPoint x="240" y="280" />
              <mxPoint x="320" y="380" />
            </Array>
          </mxGeometry>
        </mxCell>
        <mxCell id="EhvA6dui2CepMF-uVZWQ-3" value="&lt;div style=&quot;&quot;&gt;&lt;span style=&quot;background-color: initial;&quot;&gt;Exposition:&lt;/span&gt;&lt;/div&gt;" style="text;html=1;strokeColor=none;fillColor=none;align=left;verticalAlign=top;whiteSpace=wrap;rounded=0;fontColor=#FFFFFF;fontStyle=4" vertex="1" parent="1">
          <mxGeometry x="70" y="400" width="90" height="50" as="geometry" />
        </mxCell>
        <mxCell id="EhvA6dui2CepMF-uVZWQ-4" value="Rising Action" style="text;html=1;strokeColor=none;fillColor=none;align=center;verticalAlign=middle;whiteSpace=wrap;rounded=0;fontColor=#FFFFFF;" vertex="1" parent="1">
          <mxGeometry x="90" y="290" width="60" height="30" as="geometry" />
        </mxCell>
        <mxCell id="EhvA6dui2CepMF-uVZWQ-5" value="Event 1" style="text;html=1;strokeColor=none;fillColor=none;align=center;verticalAlign=middle;whiteSpace=wrap;rounded=0;fontColor=#FFFFFF;" vertex="1" parent="1">
          <mxGeometry x="120" y="350" width="60" height="30" as="geometry" />
        </mxCell>
        <mxCell id="EhvA6dui2CepMF-uVZWQ-6" value="Event 2" style="text;html=1;strokeColor=none;fillColor=none;align=center;verticalAlign=middle;whiteSpace=wrap;rounded=0;fontColor=#FFFFFF;" vertex="1" parent="1">
          <mxGeometry x="140" y="320" width="60" height="30" as="geometry" />
        </mxCell>
        <mxCell id="EhvA6dui2CepMF-uVZWQ-7" value="Event 3..." style="text;html=1;strokeColor=none;fillColor=none;align=center;verticalAlign=middle;whiteSpace=wrap;rounded=0;fontColor=#FFFFFF;" vertex="1" parent="1">
          <mxGeometry x="160" y="290" width="60" height="30" as="geometry" />
        </mxCell>
        <mxCell id="EhvA6dui2CepMF-uVZWQ-8" value="Climax" style="text;html=1;strokeColor=none;fillColor=none;align=center;verticalAlign=middle;whiteSpace=wrap;rounded=0;fontColor=#FFFFFF;" vertex="1" parent="1">
          <mxGeometry x="210" y="250" width="60" height="30" as="geometry" />
        </mxCell>
        <mxCell id="EhvA6dui2CepMF-uVZWQ-9" value="Falling Action" style="text;html=1;strokeColor=none;fillColor=none;align=center;verticalAlign=middle;whiteSpace=wrap;rounded=0;fontColor=#FFFFFF;" vertex="1" parent="1">
          <mxGeometry x="320" y="290" width="60" height="30" as="geometry" />
        </mxCell>
        <mxCell id="EhvA6dui2CepMF-uVZWQ-10" value="Event 1" style="text;html=1;strokeColor=none;fillColor=none;align=center;verticalAlign=middle;whiteSpace=wrap;rounded=0;fontColor=#FFFFFF;" vertex="1" parent="1">
          <mxGeometry x="260" y="290" width="60" height="30" as="geometry" />
        </mxCell>
        <mxCell id="EhvA6dui2CepMF-uVZWQ-11" value="Event 3..." style="text;html=1;strokeColor=none;fillColor=none;align=center;verticalAlign=middle;whiteSpace=wrap;rounded=0;fontColor=#FFFFFF;" vertex="1" parent="1">
          <mxGeometry x="310" y="350" width="60" height="30" as="geometry" />
        </mxCell>
        <mxCell id="EhvA6dui2CepMF-uVZWQ-12" value="Event 2" style="text;html=1;strokeColor=none;fillColor=none;align=center;verticalAlign=middle;whiteSpace=wrap;rounded=0;fontColor=#FFFFFF;" vertex="1" parent="1">
          <mxGeometry x="290" y="320" width="60" height="30" as="geometry" />
        </mxCell>
        <mxCell id="EhvA6dui2CepMF-uVZWQ-13" value="Resolution" style="text;html=1;strokeColor=none;fillColor=none;align=center;verticalAlign=middle;whiteSpace=wrap;rounded=0;fontColor=#FFFFFF;" vertex="1" parent="1">
          <mxGeometry x="330" y="380" width="60" height="30" as="geometry" />
        </mxCell>
        <mxCell id="EhvA6dui2CepMF-uVZWQ-14" value="&lt;div style=&quot;text-align: left;&quot;&gt;&lt;span style=&quot;background-color: initial;&quot;&gt;&amp;nbsp; &amp;nbsp; Characters:&lt;/span&gt;&lt;/div&gt;&lt;div style=&quot;text-align: left;&quot;&gt;&lt;span style=&quot;background-color: initial;&quot;&gt;Setting:&lt;/span&gt;&lt;/div&gt;&lt;div style=&quot;text-align: left;&quot;&gt;&lt;span style=&quot;background-color: initial;&quot;&gt;Conflict:&lt;/span&gt;&lt;/div&gt;" style="text;html=1;strokeColor=none;fillColor=none;align=center;verticalAlign=middle;whiteSpace=wrap;rounded=0;fontColor=#FFFFFF;" vertex="1" parent="1">
          <mxGeometry x="80" y="420" width="60" height="30" as="geometry" />
        </mxCell>
        <mxCell id="EhvA6dui2CepMF-uVZWQ-15" value="" style="rounded=0;whiteSpace=wrap;html=1;fillColor=#007FFF;strokeColor=#6c8ebf;" vertex="1" parent="1">
          <mxGeometry x="30" y="510" width="400" height="245" as="geometry" />
        </mxCell>
      </root>
    </mxGraphModel>
  </diagram>
</mxfile>
